# xmcd
#
# Track frame offsets:
#   150
#   1556
#   21249
#   39919
#   47463
#   58987
#   75388
#   90998
#   105228
#   117518
#   134412
#
# Disc length: 2057 seconds
#
# Revision: 0
# Processed by: cddbd v1.5.1PL2 Copyright (c) Steve Scherf et al.
# Submitted via: GXTranscoder 2.0.1939
#
DISCID=7508070b
DTITLE=Aggro Berlin - Ansage Nr. 5 Bonus
DYEAR=1900
DGENRE=German Rap
TTITLE0=Atze und Matze Intro
TTITLE1=Aggro Teil 5
TTITLE2=Identität
TTITLE3=Tony's Block Skit
TTITLE4=Blockrandale
TTITLE5=Ok Ok
TTITLE6=Geh Ab
TTITLE7=Kein Zurück
TTITLE8=Oreno Eisono Rapper
TTITLE9=Böser Blick
TTITLE10=Weil Alles Gold Geht
EXTD=
EXTT0=
EXTT1=
EXTT2=
EXTT3=
EXTT4=
EXTT5=
EXTT6=
EXTT7=
EXTT8=
EXTT9=
EXTT10=
PLAYORDER=
